%TF.GenerationSoftware,KiCad,Pcbnew,(5.0.0)*%
%TF.CreationDate,2018-08-05T20:37:25+03:00*%
%TF.ProjectId,lora1276Breakout,6C6F726131323736427265616B6F7574,1.0*%
%TF.SameCoordinates,Original*%
%TF.FileFunction,Copper,L1,Top,Signal*%
%TF.FilePolarity,Positive*%
%FSLAX46Y46*%
G04 Gerber Fmt 4.6, Leading zero omitted, Abs format (unit mm)*
G04 Created by KiCad (PCBNEW (5.0.0)) date 08/05/18 20:37:25*
%MOMM*%
%LPD*%
G01*
G04 APERTURE LIST*
%ADD10R,3.000000X0.800000*%
%ADD11R,5.080000X2.290000*%
%ADD12R,5.080000X2.420000*%
%ADD13C,0.970000*%
%ADD14R,0.950000X0.460000*%
%ADD15C,0.100000*%
%ADD16C,0.975000*%
%ADD17R,1.700000X1.700000*%
%ADD18O,1.700000X1.700000*%
%ADD19C,0.800000*%
%ADD20C,0.250000*%
%ADD21C,0.254000*%
G04 APERTURE END LIST*
D10*
X150049906Y-86284381D03*
X150049906Y-87554381D03*
X150049906Y-88824381D03*
X150049906Y-90094381D03*
X150049906Y-91364381D03*
X150049906Y-92634381D03*
X150049906Y-93904381D03*
X150049906Y-95174381D03*
X150049906Y-96444381D03*
X150049906Y-97714381D03*
X150049906Y-98984381D03*
X167349906Y-85894381D03*
X167349906Y-87394381D03*
X150049906Y-100254381D03*
D11*
X175006000Y-93726000D03*
D12*
X175006000Y-98106000D03*
X175006000Y-89346000D03*
D13*
X171566000Y-98106000D03*
X171566000Y-89346000D03*
D14*
X172016000Y-98106000D03*
X172016000Y-89346000D03*
D15*
G36*
X151610142Y-104591174D02*
X151633803Y-104594684D01*
X151657007Y-104600496D01*
X151679529Y-104608554D01*
X151701153Y-104618782D01*
X151721670Y-104631079D01*
X151740883Y-104645329D01*
X151758607Y-104661393D01*
X151774671Y-104679117D01*
X151788921Y-104698330D01*
X151801218Y-104718847D01*
X151811446Y-104740471D01*
X151819504Y-104762993D01*
X151825316Y-104786197D01*
X151828826Y-104809858D01*
X151830000Y-104833750D01*
X151830000Y-105321250D01*
X151828826Y-105345142D01*
X151825316Y-105368803D01*
X151819504Y-105392007D01*
X151811446Y-105414529D01*
X151801218Y-105436153D01*
X151788921Y-105456670D01*
X151774671Y-105475883D01*
X151758607Y-105493607D01*
X151740883Y-105509671D01*
X151721670Y-105523921D01*
X151701153Y-105536218D01*
X151679529Y-105546446D01*
X151657007Y-105554504D01*
X151633803Y-105560316D01*
X151610142Y-105563826D01*
X151586250Y-105565000D01*
X150673750Y-105565000D01*
X150649858Y-105563826D01*
X150626197Y-105560316D01*
X150602993Y-105554504D01*
X150580471Y-105546446D01*
X150558847Y-105536218D01*
X150538330Y-105523921D01*
X150519117Y-105509671D01*
X150501393Y-105493607D01*
X150485329Y-105475883D01*
X150471079Y-105456670D01*
X150458782Y-105436153D01*
X150448554Y-105414529D01*
X150440496Y-105392007D01*
X150434684Y-105368803D01*
X150431174Y-105345142D01*
X150430000Y-105321250D01*
X150430000Y-104833750D01*
X150431174Y-104809858D01*
X150434684Y-104786197D01*
X150440496Y-104762993D01*
X150448554Y-104740471D01*
X150458782Y-104718847D01*
X150471079Y-104698330D01*
X150485329Y-104679117D01*
X150501393Y-104661393D01*
X150519117Y-104645329D01*
X150538330Y-104631079D01*
X150558847Y-104618782D01*
X150580471Y-104608554D01*
X150602993Y-104600496D01*
X150626197Y-104594684D01*
X150649858Y-104591174D01*
X150673750Y-104590000D01*
X151586250Y-104590000D01*
X151610142Y-104591174D01*
X151610142Y-104591174D01*
G37*
D16*
X151130000Y-105077500D03*
D15*
G36*
X151610142Y-102716174D02*
X151633803Y-102719684D01*
X151657007Y-102725496D01*
X151679529Y-102733554D01*
X151701153Y-102743782D01*
X151721670Y-102756079D01*
X151740883Y-102770329D01*
X151758607Y-102786393D01*
X151774671Y-102804117D01*
X151788921Y-102823330D01*
X151801218Y-102843847D01*
X151811446Y-102865471D01*
X151819504Y-102887993D01*
X151825316Y-102911197D01*
X151828826Y-102934858D01*
X151830000Y-102958750D01*
X151830000Y-103446250D01*
X151828826Y-103470142D01*
X151825316Y-103493803D01*
X151819504Y-103517007D01*
X151811446Y-103539529D01*
X151801218Y-103561153D01*
X151788921Y-103581670D01*
X151774671Y-103600883D01*
X151758607Y-103618607D01*
X151740883Y-103634671D01*
X151721670Y-103648921D01*
X151701153Y-103661218D01*
X151679529Y-103671446D01*
X151657007Y-103679504D01*
X151633803Y-103685316D01*
X151610142Y-103688826D01*
X151586250Y-103690000D01*
X150673750Y-103690000D01*
X150649858Y-103688826D01*
X150626197Y-103685316D01*
X150602993Y-103679504D01*
X150580471Y-103671446D01*
X150558847Y-103661218D01*
X150538330Y-103648921D01*
X150519117Y-103634671D01*
X150501393Y-103618607D01*
X150485329Y-103600883D01*
X150471079Y-103581670D01*
X150458782Y-103561153D01*
X150448554Y-103539529D01*
X150440496Y-103517007D01*
X150434684Y-103493803D01*
X150431174Y-103470142D01*
X150430000Y-103446250D01*
X150430000Y-102958750D01*
X150431174Y-102934858D01*
X150434684Y-102911197D01*
X150440496Y-102887993D01*
X150448554Y-102865471D01*
X150458782Y-102843847D01*
X150471079Y-102823330D01*
X150485329Y-102804117D01*
X150501393Y-102786393D01*
X150519117Y-102770329D01*
X150538330Y-102756079D01*
X150558847Y-102743782D01*
X150580471Y-102733554D01*
X150602993Y-102725496D01*
X150626197Y-102719684D01*
X150649858Y-102716174D01*
X150673750Y-102715000D01*
X151586250Y-102715000D01*
X151610142Y-102716174D01*
X151610142Y-102716174D01*
G37*
D16*
X151130000Y-103202500D03*
D15*
G36*
X146800142Y-102716174D02*
X146823803Y-102719684D01*
X146847007Y-102725496D01*
X146869529Y-102733554D01*
X146891153Y-102743782D01*
X146911670Y-102756079D01*
X146930883Y-102770329D01*
X146948607Y-102786393D01*
X146964671Y-102804117D01*
X146978921Y-102823330D01*
X146991218Y-102843847D01*
X147001446Y-102865471D01*
X147009504Y-102887993D01*
X147015316Y-102911197D01*
X147018826Y-102934858D01*
X147020000Y-102958750D01*
X147020000Y-103446250D01*
X147018826Y-103470142D01*
X147015316Y-103493803D01*
X147009504Y-103517007D01*
X147001446Y-103539529D01*
X146991218Y-103561153D01*
X146978921Y-103581670D01*
X146964671Y-103600883D01*
X146948607Y-103618607D01*
X146930883Y-103634671D01*
X146911670Y-103648921D01*
X146891153Y-103661218D01*
X146869529Y-103671446D01*
X146847007Y-103679504D01*
X146823803Y-103685316D01*
X146800142Y-103688826D01*
X146776250Y-103690000D01*
X145863750Y-103690000D01*
X145839858Y-103688826D01*
X145816197Y-103685316D01*
X145792993Y-103679504D01*
X145770471Y-103671446D01*
X145748847Y-103661218D01*
X145728330Y-103648921D01*
X145709117Y-103634671D01*
X145691393Y-103618607D01*
X145675329Y-103600883D01*
X145661079Y-103581670D01*
X145648782Y-103561153D01*
X145638554Y-103539529D01*
X145630496Y-103517007D01*
X145624684Y-103493803D01*
X145621174Y-103470142D01*
X145620000Y-103446250D01*
X145620000Y-102958750D01*
X145621174Y-102934858D01*
X145624684Y-102911197D01*
X145630496Y-102887993D01*
X145638554Y-102865471D01*
X145648782Y-102843847D01*
X145661079Y-102823330D01*
X145675329Y-102804117D01*
X145691393Y-102786393D01*
X145709117Y-102770329D01*
X145728330Y-102756079D01*
X145748847Y-102743782D01*
X145770471Y-102733554D01*
X145792993Y-102725496D01*
X145816197Y-102719684D01*
X145839858Y-102716174D01*
X145863750Y-102715000D01*
X146776250Y-102715000D01*
X146800142Y-102716174D01*
X146800142Y-102716174D01*
G37*
D16*
X146320000Y-103202500D03*
D15*
G36*
X146800142Y-104591174D02*
X146823803Y-104594684D01*
X146847007Y-104600496D01*
X146869529Y-104608554D01*
X146891153Y-104618782D01*
X146911670Y-104631079D01*
X146930883Y-104645329D01*
X146948607Y-104661393D01*
X146964671Y-104679117D01*
X146978921Y-104698330D01*
X146991218Y-104718847D01*
X147001446Y-104740471D01*
X147009504Y-104762993D01*
X147015316Y-104786197D01*
X147018826Y-104809858D01*
X147020000Y-104833750D01*
X147020000Y-105321250D01*
X147018826Y-105345142D01*
X147015316Y-105368803D01*
X147009504Y-105392007D01*
X147001446Y-105414529D01*
X146991218Y-105436153D01*
X146978921Y-105456670D01*
X146964671Y-105475883D01*
X146948607Y-105493607D01*
X146930883Y-105509671D01*
X146911670Y-105523921D01*
X146891153Y-105536218D01*
X146869529Y-105546446D01*
X146847007Y-105554504D01*
X146823803Y-105560316D01*
X146800142Y-105563826D01*
X146776250Y-105565000D01*
X145863750Y-105565000D01*
X145839858Y-105563826D01*
X145816197Y-105560316D01*
X145792993Y-105554504D01*
X145770471Y-105546446D01*
X145748847Y-105536218D01*
X145728330Y-105523921D01*
X145709117Y-105509671D01*
X145691393Y-105493607D01*
X145675329Y-105475883D01*
X145661079Y-105456670D01*
X145648782Y-105436153D01*
X145638554Y-105414529D01*
X145630496Y-105392007D01*
X145624684Y-105368803D01*
X145621174Y-105345142D01*
X145620000Y-105321250D01*
X145620000Y-104833750D01*
X145621174Y-104809858D01*
X145624684Y-104786197D01*
X145630496Y-104762993D01*
X145638554Y-104740471D01*
X145648782Y-104718847D01*
X145661079Y-104698330D01*
X145675329Y-104679117D01*
X145691393Y-104661393D01*
X145709117Y-104645329D01*
X145728330Y-104631079D01*
X145748847Y-104618782D01*
X145770471Y-104608554D01*
X145792993Y-104600496D01*
X145816197Y-104594684D01*
X145839858Y-104591174D01*
X145863750Y-104590000D01*
X146776250Y-104590000D01*
X146800142Y-104591174D01*
X146800142Y-104591174D01*
G37*
D16*
X146320000Y-105077500D03*
D17*
X142240000Y-82550000D03*
D18*
X142240000Y-85090000D03*
X142240000Y-87630000D03*
X142240000Y-90170000D03*
X142240000Y-92710000D03*
X142240000Y-95250000D03*
X142240000Y-97790000D03*
X142240000Y-100330000D03*
X142240000Y-102870000D03*
X142240000Y-105410000D03*
D19*
X148590000Y-85090000D03*
X171566000Y-89346000D03*
X171566000Y-98106000D03*
X168656000Y-88900000D03*
X171704000Y-91819000D03*
D20*
X151130000Y-105140000D02*
X146320000Y-105140000D01*
X142510000Y-105140000D02*
X142240000Y-105410000D01*
X146320000Y-105140000D02*
X142510000Y-105140000D01*
X150049906Y-86284381D02*
X149784381Y-86284381D01*
X149784381Y-86284381D02*
X148590000Y-85090000D01*
X175006000Y-89346000D02*
X171566000Y-89346000D01*
X175006000Y-98106000D02*
X171566000Y-98106000D01*
X165849906Y-87394381D02*
X167150381Y-87394381D01*
X167150381Y-87394381D02*
X168656000Y-88900000D01*
X142315619Y-100254381D02*
X142240000Y-100330000D01*
X150049906Y-100254381D02*
X142315619Y-100254381D01*
X142315619Y-97714381D02*
X142240000Y-97790000D01*
X150049906Y-97714381D02*
X142315619Y-97714381D01*
X143434381Y-96444381D02*
X142240000Y-95250000D01*
X150049906Y-96444381D02*
X143434381Y-96444381D01*
X144704381Y-95174381D02*
X142240000Y-92710000D01*
X150049906Y-95174381D02*
X144704381Y-95174381D01*
X145974381Y-93904381D02*
X142240000Y-90170000D01*
X150049906Y-93904381D02*
X145974381Y-93904381D01*
X147244381Y-92634381D02*
X142240000Y-87630000D01*
X150049906Y-92634381D02*
X147244381Y-92634381D01*
X143089999Y-85939999D02*
X142240000Y-85090000D01*
X148514381Y-91364381D02*
X143089999Y-85939999D01*
X150049906Y-91364381D02*
X148514381Y-91364381D01*
X150049906Y-90094381D02*
X148006381Y-90094381D01*
X148006381Y-90094381D02*
X146558000Y-88646000D01*
X143340000Y-82550000D02*
X142240000Y-82550000D01*
X146558000Y-85768000D02*
X143340000Y-82550000D01*
X146558000Y-88646000D02*
X146558000Y-85768000D01*
X165849906Y-85894381D02*
X168952381Y-85894381D01*
X168952381Y-85894381D02*
X169926000Y-86868000D01*
X173611000Y-93726000D02*
X175006000Y-93726000D01*
X169926000Y-86868000D02*
X169926000Y-90041000D01*
X169926000Y-90041000D02*
X171704000Y-91819000D01*
X171704000Y-91819000D02*
X173611000Y-93726000D01*
D21*
G36*
X177987787Y-80764065D02*
X178152920Y-80859405D01*
X178275488Y-81005477D01*
X178351555Y-81214465D01*
X178360000Y-81310996D01*
X178360001Y-105340074D01*
X178360000Y-106617880D01*
X178315935Y-106867787D01*
X178220596Y-107032919D01*
X178074524Y-107155488D01*
X177865532Y-107231555D01*
X177769004Y-107240000D01*
X141032119Y-107240000D01*
X140782213Y-107195935D01*
X140617081Y-107100596D01*
X140494512Y-106954524D01*
X140418445Y-106745532D01*
X140410000Y-106649004D01*
X140410000Y-105410000D01*
X140725908Y-105410000D01*
X140841161Y-105989418D01*
X141169375Y-106480625D01*
X141660582Y-106808839D01*
X142093744Y-106895000D01*
X142386256Y-106895000D01*
X142819418Y-106808839D01*
X143310625Y-106480625D01*
X143638839Y-105989418D01*
X143656625Y-105900000D01*
X145199229Y-105900000D01*
X145233584Y-105951416D01*
X145522706Y-106144602D01*
X145863750Y-106212440D01*
X146776250Y-106212440D01*
X147117294Y-106144602D01*
X147406416Y-105951416D01*
X147440771Y-105900000D01*
X150009229Y-105900000D01*
X150043584Y-105951416D01*
X150332706Y-106144602D01*
X150673750Y-106212440D01*
X151586250Y-106212440D01*
X151927294Y-106144602D01*
X152216416Y-105951416D01*
X152409602Y-105662294D01*
X152477440Y-105321250D01*
X152477440Y-104833750D01*
X152409602Y-104492706D01*
X152216416Y-104203584D01*
X152215233Y-104202793D01*
X152368327Y-104049698D01*
X152465000Y-103816309D01*
X152465000Y-103488250D01*
X152306250Y-103329500D01*
X151257000Y-103329500D01*
X151257000Y-103349500D01*
X151003000Y-103349500D01*
X151003000Y-103329500D01*
X149953750Y-103329500D01*
X149795000Y-103488250D01*
X149795000Y-103816309D01*
X149891673Y-104049698D01*
X150044767Y-104202793D01*
X150043584Y-104203584D01*
X149925706Y-104380000D01*
X147524294Y-104380000D01*
X147406416Y-104203584D01*
X147405233Y-104202793D01*
X147558327Y-104049698D01*
X147655000Y-103816309D01*
X147655000Y-103488250D01*
X147496250Y-103329500D01*
X146447000Y-103329500D01*
X146447000Y-103349500D01*
X146193000Y-103349500D01*
X146193000Y-103329500D01*
X145143750Y-103329500D01*
X144985000Y-103488250D01*
X144985000Y-103816309D01*
X145081673Y-104049698D01*
X145234767Y-104202793D01*
X145233584Y-104203584D01*
X145115706Y-104380000D01*
X143337770Y-104380000D01*
X143310625Y-104339375D01*
X142991522Y-104126157D01*
X143121358Y-104065183D01*
X143511645Y-103636924D01*
X143681476Y-103226890D01*
X143660653Y-103187431D01*
X170993000Y-103187431D01*
X170993000Y-104076569D01*
X171333259Y-104898026D01*
X171961974Y-105526741D01*
X172783431Y-105867000D01*
X173672569Y-105867000D01*
X174494026Y-105526741D01*
X175122741Y-104898026D01*
X175463000Y-104076569D01*
X175463000Y-103187431D01*
X175122741Y-102365974D01*
X174494026Y-101737259D01*
X173672569Y-101397000D01*
X172783431Y-101397000D01*
X171961974Y-101737259D01*
X171333259Y-102365974D01*
X170993000Y-103187431D01*
X143660653Y-103187431D01*
X143560155Y-102997000D01*
X142367000Y-102997000D01*
X142367000Y-103017000D01*
X142113000Y-103017000D01*
X142113000Y-102997000D01*
X140919845Y-102997000D01*
X140798524Y-103226890D01*
X140968355Y-103636924D01*
X141358642Y-104065183D01*
X141488478Y-104126157D01*
X141169375Y-104339375D01*
X140841161Y-104830582D01*
X140725908Y-105410000D01*
X140410000Y-105410000D01*
X140410000Y-85090000D01*
X140725908Y-85090000D01*
X140841161Y-85669418D01*
X141169375Y-86160625D01*
X141467761Y-86360000D01*
X141169375Y-86559375D01*
X140841161Y-87050582D01*
X140725908Y-87630000D01*
X140841161Y-88209418D01*
X141169375Y-88700625D01*
X141467761Y-88900000D01*
X141169375Y-89099375D01*
X140841161Y-89590582D01*
X140725908Y-90170000D01*
X140841161Y-90749418D01*
X141169375Y-91240625D01*
X141467761Y-91440000D01*
X141169375Y-91639375D01*
X140841161Y-92130582D01*
X140725908Y-92710000D01*
X140841161Y-93289418D01*
X141169375Y-93780625D01*
X141467761Y-93980000D01*
X141169375Y-94179375D01*
X140841161Y-94670582D01*
X140725908Y-95250000D01*
X140841161Y-95829418D01*
X141169375Y-96320625D01*
X141467761Y-96520000D01*
X141169375Y-96719375D01*
X140841161Y-97210582D01*
X140725908Y-97790000D01*
X140841161Y-98369418D01*
X141169375Y-98860625D01*
X141467761Y-99060000D01*
X141169375Y-99259375D01*
X140841161Y-99750582D01*
X140725908Y-100330000D01*
X140841161Y-100909418D01*
X141169375Y-101400625D01*
X141488478Y-101613843D01*
X141358642Y-101674817D01*
X140968355Y-102103076D01*
X140798524Y-102513110D01*
X140919845Y-102743000D01*
X142113000Y-102743000D01*
X142113000Y-102723000D01*
X142367000Y-102723000D01*
X142367000Y-102743000D01*
X143560155Y-102743000D01*
X143641589Y-102588691D01*
X144985000Y-102588691D01*
X144985000Y-102916750D01*
X145143750Y-103075500D01*
X146193000Y-103075500D01*
X146193000Y-102238750D01*
X146447000Y-102238750D01*
X146447000Y-103075500D01*
X147496250Y-103075500D01*
X147655000Y-102916750D01*
X147655000Y-102588691D01*
X149795000Y-102588691D01*
X149795000Y-102916750D01*
X149953750Y-103075500D01*
X151003000Y-103075500D01*
X151003000Y-102238750D01*
X151257000Y-102238750D01*
X151257000Y-103075500D01*
X152306250Y-103075500D01*
X152465000Y-102916750D01*
X152465000Y-102588691D01*
X152368327Y-102355302D01*
X152189699Y-102176673D01*
X151956310Y-102080000D01*
X151415750Y-102080000D01*
X151257000Y-102238750D01*
X151003000Y-102238750D01*
X150844250Y-102080000D01*
X150303690Y-102080000D01*
X150070301Y-102176673D01*
X149891673Y-102355302D01*
X149795000Y-102588691D01*
X147655000Y-102588691D01*
X147558327Y-102355302D01*
X147379699Y-102176673D01*
X147146310Y-102080000D01*
X146605750Y-102080000D01*
X146447000Y-102238750D01*
X146193000Y-102238750D01*
X146034250Y-102080000D01*
X145493690Y-102080000D01*
X145260301Y-102176673D01*
X145081673Y-102355302D01*
X144985000Y-102588691D01*
X143641589Y-102588691D01*
X143681476Y-102513110D01*
X143511645Y-102103076D01*
X143121358Y-101674817D01*
X142991522Y-101613843D01*
X143310625Y-101400625D01*
X143568705Y-101014381D01*
X148026743Y-101014381D01*
X148092097Y-101112190D01*
X148302141Y-101252538D01*
X148549906Y-101301821D01*
X151549906Y-101301821D01*
X151797671Y-101252538D01*
X152007715Y-101112190D01*
X152148063Y-100902146D01*
X152197346Y-100654381D01*
X152197346Y-99854381D01*
X152148063Y-99606616D01*
X152146279Y-99603946D01*
X152184906Y-99510691D01*
X152184906Y-99270131D01*
X152026156Y-99111381D01*
X150176906Y-99111381D01*
X150176906Y-99131381D01*
X149922906Y-99131381D01*
X149922906Y-99111381D01*
X148073656Y-99111381D01*
X147914906Y-99270131D01*
X147914906Y-99494381D01*
X143467651Y-99494381D01*
X143310625Y-99259375D01*
X143012239Y-99060000D01*
X143310625Y-98860625D01*
X143568705Y-98474381D01*
X147914906Y-98474381D01*
X147914906Y-98698631D01*
X148073656Y-98857381D01*
X149922906Y-98857381D01*
X149922906Y-98837381D01*
X150176906Y-98837381D01*
X150176906Y-98857381D01*
X152026156Y-98857381D01*
X152184906Y-98698631D01*
X152184906Y-98458071D01*
X152146279Y-98364816D01*
X152148063Y-98362146D01*
X152197346Y-98114381D01*
X152197346Y-97883218D01*
X170446000Y-97883218D01*
X170446000Y-98328782D01*
X170616510Y-98740429D01*
X170931571Y-99055490D01*
X171343218Y-99226000D01*
X171788782Y-99226000D01*
X171818560Y-99213666D01*
X171818560Y-99316000D01*
X171867843Y-99563765D01*
X172008191Y-99773809D01*
X172218235Y-99914157D01*
X172466000Y-99963440D01*
X177546000Y-99963440D01*
X177793765Y-99914157D01*
X178003809Y-99773809D01*
X178144157Y-99563765D01*
X178193440Y-99316000D01*
X178193440Y-96896000D01*
X178144157Y-96648235D01*
X178003809Y-96438191D01*
X177793765Y-96297843D01*
X177546000Y-96248560D01*
X172466000Y-96248560D01*
X172218235Y-96297843D01*
X172008191Y-96438191D01*
X171867843Y-96648235D01*
X171818560Y-96896000D01*
X171818560Y-96998334D01*
X171788782Y-96986000D01*
X171343218Y-96986000D01*
X170931571Y-97156510D01*
X170616510Y-97471571D01*
X170446000Y-97883218D01*
X152197346Y-97883218D01*
X152197346Y-97314381D01*
X152150602Y-97079381D01*
X152197346Y-96844381D01*
X152197346Y-96044381D01*
X152150602Y-95809381D01*
X152197346Y-95574381D01*
X152197346Y-94774381D01*
X152150602Y-94539381D01*
X152197346Y-94304381D01*
X152197346Y-93504381D01*
X152150602Y-93269381D01*
X152197346Y-93034381D01*
X152197346Y-92234381D01*
X152150602Y-91999381D01*
X152197346Y-91764381D01*
X152197346Y-90964381D01*
X152150602Y-90729381D01*
X152197346Y-90494381D01*
X152197346Y-89694381D01*
X152150602Y-89459381D01*
X152197346Y-89224381D01*
X152197346Y-88424381D01*
X152150602Y-88189381D01*
X152197346Y-87954381D01*
X152197346Y-87154381D01*
X152150602Y-86919381D01*
X152197346Y-86684381D01*
X152197346Y-85894381D01*
X165075017Y-85894381D01*
X165134002Y-86190918D01*
X165202466Y-86293381D01*
X165202466Y-86294381D01*
X165251749Y-86542146D01*
X165320061Y-86644381D01*
X165251749Y-86746616D01*
X165202466Y-86994381D01*
X165202466Y-86995381D01*
X165134002Y-87097844D01*
X165075017Y-87394381D01*
X165134002Y-87690918D01*
X165202466Y-87793381D01*
X165202466Y-87794381D01*
X165251749Y-88042146D01*
X165392097Y-88252190D01*
X165602141Y-88392538D01*
X165849906Y-88441821D01*
X167123020Y-88441821D01*
X167621000Y-88939802D01*
X167621000Y-89105874D01*
X167778569Y-89486280D01*
X168069720Y-89777431D01*
X168450126Y-89935000D01*
X168861874Y-89935000D01*
X169166001Y-89809027D01*
X169166001Y-89966148D01*
X169151112Y-90041000D01*
X169210097Y-90337537D01*
X169323043Y-90506572D01*
X169378072Y-90588929D01*
X169441528Y-90631329D01*
X170669000Y-91858802D01*
X170669000Y-92024874D01*
X170826569Y-92405280D01*
X171117720Y-92696431D01*
X171498126Y-92854000D01*
X171664199Y-92854000D01*
X171818560Y-93008361D01*
X171818560Y-94871000D01*
X171867843Y-95118765D01*
X172008191Y-95328809D01*
X172218235Y-95469157D01*
X172466000Y-95518440D01*
X177546000Y-95518440D01*
X177793765Y-95469157D01*
X178003809Y-95328809D01*
X178144157Y-95118765D01*
X178193440Y-94871000D01*
X178193440Y-92581000D01*
X178144157Y-92333235D01*
X178003809Y-92123191D01*
X177793765Y-91982843D01*
X177546000Y-91933560D01*
X172893361Y-91933560D01*
X172739000Y-91779199D01*
X172739000Y-91613126D01*
X172581431Y-91232720D01*
X172552151Y-91203440D01*
X177546000Y-91203440D01*
X177793765Y-91154157D01*
X178003809Y-91013809D01*
X178144157Y-90803765D01*
X178193440Y-90556000D01*
X178193440Y-88136000D01*
X178144157Y-87888235D01*
X178003809Y-87678191D01*
X177793765Y-87537843D01*
X177546000Y-87488560D01*
X172466000Y-87488560D01*
X172218235Y-87537843D01*
X172008191Y-87678191D01*
X171867843Y-87888235D01*
X171818560Y-88136000D01*
X171818560Y-88238334D01*
X171788782Y-88226000D01*
X171343218Y-88226000D01*
X170931571Y-88396510D01*
X170686000Y-88642081D01*
X170686000Y-86942846D01*
X170700888Y-86867999D01*
X170686000Y-86793152D01*
X170686000Y-86793148D01*
X170641904Y-86571463D01*
X170473929Y-86320071D01*
X170410473Y-86277671D01*
X169542712Y-85409911D01*
X169500310Y-85346452D01*
X169462957Y-85321493D01*
X169448063Y-85246616D01*
X169307715Y-85036572D01*
X169097671Y-84896224D01*
X168849906Y-84846941D01*
X165849906Y-84846941D01*
X165602141Y-84896224D01*
X165392097Y-85036572D01*
X165251749Y-85246616D01*
X165202466Y-85494381D01*
X165202466Y-85495381D01*
X165134002Y-85597844D01*
X165075017Y-85894381D01*
X152197346Y-85894381D01*
X152197346Y-85884381D01*
X152148063Y-85636616D01*
X152007715Y-85426572D01*
X151797671Y-85286224D01*
X151549906Y-85236941D01*
X149811743Y-85236941D01*
X149625000Y-85050199D01*
X149625000Y-84884126D01*
X149467431Y-84503720D01*
X149176280Y-84212569D01*
X148795874Y-84055000D01*
X148384126Y-84055000D01*
X148003720Y-84212569D01*
X147712569Y-84503720D01*
X147555000Y-84884126D01*
X147555000Y-85295874D01*
X147712569Y-85676280D01*
X147905486Y-85869197D01*
X147902466Y-85884381D01*
X147902466Y-86684381D01*
X147949210Y-86919381D01*
X147902466Y-87154381D01*
X147902466Y-87954381D01*
X147949210Y-88189381D01*
X147902466Y-88424381D01*
X147902466Y-88915664D01*
X147318000Y-88331199D01*
X147318000Y-85842846D01*
X147332888Y-85767999D01*
X147318000Y-85693152D01*
X147318000Y-85693148D01*
X147273904Y-85471463D01*
X147105929Y-85220071D01*
X147042473Y-85177671D01*
X145240233Y-83375431D01*
X170993000Y-83375431D01*
X170993000Y-84264569D01*
X171333259Y-85086026D01*
X171961974Y-85714741D01*
X172783431Y-86055000D01*
X173672569Y-86055000D01*
X174494026Y-85714741D01*
X175122741Y-85086026D01*
X175463000Y-84264569D01*
X175463000Y-83375431D01*
X175122741Y-82553974D01*
X174494026Y-81925259D01*
X173672569Y-81585000D01*
X172783431Y-81585000D01*
X171961974Y-81925259D01*
X171333259Y-82553974D01*
X170993000Y-83375431D01*
X145240233Y-83375431D01*
X143930331Y-82065530D01*
X143887929Y-82002071D01*
X143737440Y-81901517D01*
X143737440Y-81700000D01*
X143688157Y-81452235D01*
X143547809Y-81242191D01*
X143337765Y-81101843D01*
X143090000Y-81052560D01*
X141390000Y-81052560D01*
X141142235Y-81101843D01*
X140932191Y-81242191D01*
X140791843Y-81452235D01*
X140742560Y-81700000D01*
X140742560Y-83400000D01*
X140791843Y-83647765D01*
X140932191Y-83857809D01*
X141142235Y-83998157D01*
X141187619Y-84007184D01*
X141169375Y-84019375D01*
X140841161Y-84510582D01*
X140725908Y-85090000D01*
X140410000Y-85090000D01*
X140410000Y-81342119D01*
X140454065Y-81092213D01*
X140549405Y-80927080D01*
X140695477Y-80804512D01*
X140904465Y-80728445D01*
X141000996Y-80720000D01*
X177737881Y-80720000D01*
X177987787Y-80764065D01*
X177987787Y-80764065D01*
G37*
X177987787Y-80764065D02*
X178152920Y-80859405D01*
X178275488Y-81005477D01*
X178351555Y-81214465D01*
X178360000Y-81310996D01*
X178360001Y-105340074D01*
X178360000Y-106617880D01*
X178315935Y-106867787D01*
X178220596Y-107032919D01*
X178074524Y-107155488D01*
X177865532Y-107231555D01*
X177769004Y-107240000D01*
X141032119Y-107240000D01*
X140782213Y-107195935D01*
X140617081Y-107100596D01*
X140494512Y-106954524D01*
X140418445Y-106745532D01*
X140410000Y-106649004D01*
X140410000Y-105410000D01*
X140725908Y-105410000D01*
X140841161Y-105989418D01*
X141169375Y-106480625D01*
X141660582Y-106808839D01*
X142093744Y-106895000D01*
X142386256Y-106895000D01*
X142819418Y-106808839D01*
X143310625Y-106480625D01*
X143638839Y-105989418D01*
X143656625Y-105900000D01*
X145199229Y-105900000D01*
X145233584Y-105951416D01*
X145522706Y-106144602D01*
X145863750Y-106212440D01*
X146776250Y-106212440D01*
X147117294Y-106144602D01*
X147406416Y-105951416D01*
X147440771Y-105900000D01*
X150009229Y-105900000D01*
X150043584Y-105951416D01*
X150332706Y-106144602D01*
X150673750Y-106212440D01*
X151586250Y-106212440D01*
X151927294Y-106144602D01*
X152216416Y-105951416D01*
X152409602Y-105662294D01*
X152477440Y-105321250D01*
X152477440Y-104833750D01*
X152409602Y-104492706D01*
X152216416Y-104203584D01*
X152215233Y-104202793D01*
X152368327Y-104049698D01*
X152465000Y-103816309D01*
X152465000Y-103488250D01*
X152306250Y-103329500D01*
X151257000Y-103329500D01*
X151257000Y-103349500D01*
X151003000Y-103349500D01*
X151003000Y-103329500D01*
X149953750Y-103329500D01*
X149795000Y-103488250D01*
X149795000Y-103816309D01*
X149891673Y-104049698D01*
X150044767Y-104202793D01*
X150043584Y-104203584D01*
X149925706Y-104380000D01*
X147524294Y-104380000D01*
X147406416Y-104203584D01*
X147405233Y-104202793D01*
X147558327Y-104049698D01*
X147655000Y-103816309D01*
X147655000Y-103488250D01*
X147496250Y-103329500D01*
X146447000Y-103329500D01*
X146447000Y-103349500D01*
X146193000Y-103349500D01*
X146193000Y-103329500D01*
X145143750Y-103329500D01*
X144985000Y-103488250D01*
X144985000Y-103816309D01*
X145081673Y-104049698D01*
X145234767Y-104202793D01*
X145233584Y-104203584D01*
X145115706Y-104380000D01*
X143337770Y-104380000D01*
X143310625Y-104339375D01*
X142991522Y-104126157D01*
X143121358Y-104065183D01*
X143511645Y-103636924D01*
X143681476Y-103226890D01*
X143660653Y-103187431D01*
X170993000Y-103187431D01*
X170993000Y-104076569D01*
X171333259Y-104898026D01*
X171961974Y-105526741D01*
X172783431Y-105867000D01*
X173672569Y-105867000D01*
X174494026Y-105526741D01*
X175122741Y-104898026D01*
X175463000Y-104076569D01*
X175463000Y-103187431D01*
X175122741Y-102365974D01*
X174494026Y-101737259D01*
X173672569Y-101397000D01*
X172783431Y-101397000D01*
X171961974Y-101737259D01*
X171333259Y-102365974D01*
X170993000Y-103187431D01*
X143660653Y-103187431D01*
X143560155Y-102997000D01*
X142367000Y-102997000D01*
X142367000Y-103017000D01*
X142113000Y-103017000D01*
X142113000Y-102997000D01*
X140919845Y-102997000D01*
X140798524Y-103226890D01*
X140968355Y-103636924D01*
X141358642Y-104065183D01*
X141488478Y-104126157D01*
X141169375Y-104339375D01*
X140841161Y-104830582D01*
X140725908Y-105410000D01*
X140410000Y-105410000D01*
X140410000Y-85090000D01*
X140725908Y-85090000D01*
X140841161Y-85669418D01*
X141169375Y-86160625D01*
X141467761Y-86360000D01*
X141169375Y-86559375D01*
X140841161Y-87050582D01*
X140725908Y-87630000D01*
X140841161Y-88209418D01*
X141169375Y-88700625D01*
X141467761Y-88900000D01*
X141169375Y-89099375D01*
X140841161Y-89590582D01*
X140725908Y-90170000D01*
X140841161Y-90749418D01*
X141169375Y-91240625D01*
X141467761Y-91440000D01*
X141169375Y-91639375D01*
X140841161Y-92130582D01*
X140725908Y-92710000D01*
X140841161Y-93289418D01*
X141169375Y-93780625D01*
X141467761Y-93980000D01*
X141169375Y-94179375D01*
X140841161Y-94670582D01*
X140725908Y-95250000D01*
X140841161Y-95829418D01*
X141169375Y-96320625D01*
X141467761Y-96520000D01*
X141169375Y-96719375D01*
X140841161Y-97210582D01*
X140725908Y-97790000D01*
X140841161Y-98369418D01*
X141169375Y-98860625D01*
X141467761Y-99060000D01*
X141169375Y-99259375D01*
X140841161Y-99750582D01*
X140725908Y-100330000D01*
X140841161Y-100909418D01*
X141169375Y-101400625D01*
X141488478Y-101613843D01*
X141358642Y-101674817D01*
X140968355Y-102103076D01*
X140798524Y-102513110D01*
X140919845Y-102743000D01*
X142113000Y-102743000D01*
X142113000Y-102723000D01*
X142367000Y-102723000D01*
X142367000Y-102743000D01*
X143560155Y-102743000D01*
X143641589Y-102588691D01*
X144985000Y-102588691D01*
X144985000Y-102916750D01*
X145143750Y-103075500D01*
X146193000Y-103075500D01*
X146193000Y-102238750D01*
X146447000Y-102238750D01*
X146447000Y-103075500D01*
X147496250Y-103075500D01*
X147655000Y-102916750D01*
X147655000Y-102588691D01*
X149795000Y-102588691D01*
X149795000Y-102916750D01*
X149953750Y-103075500D01*
X151003000Y-103075500D01*
X151003000Y-102238750D01*
X151257000Y-102238750D01*
X151257000Y-103075500D01*
X152306250Y-103075500D01*
X152465000Y-102916750D01*
X152465000Y-102588691D01*
X152368327Y-102355302D01*
X152189699Y-102176673D01*
X151956310Y-102080000D01*
X151415750Y-102080000D01*
X151257000Y-102238750D01*
X151003000Y-102238750D01*
X150844250Y-102080000D01*
X150303690Y-102080000D01*
X150070301Y-102176673D01*
X149891673Y-102355302D01*
X149795000Y-102588691D01*
X147655000Y-102588691D01*
X147558327Y-102355302D01*
X147379699Y-102176673D01*
X147146310Y-102080000D01*
X146605750Y-102080000D01*
X146447000Y-102238750D01*
X146193000Y-102238750D01*
X146034250Y-102080000D01*
X145493690Y-102080000D01*
X145260301Y-102176673D01*
X145081673Y-102355302D01*
X144985000Y-102588691D01*
X143641589Y-102588691D01*
X143681476Y-102513110D01*
X143511645Y-102103076D01*
X143121358Y-101674817D01*
X142991522Y-101613843D01*
X143310625Y-101400625D01*
X143568705Y-101014381D01*
X148026743Y-101014381D01*
X148092097Y-101112190D01*
X148302141Y-101252538D01*
X148549906Y-101301821D01*
X151549906Y-101301821D01*
X151797671Y-101252538D01*
X152007715Y-101112190D01*
X152148063Y-100902146D01*
X152197346Y-100654381D01*
X152197346Y-99854381D01*
X152148063Y-99606616D01*
X152146279Y-99603946D01*
X152184906Y-99510691D01*
X152184906Y-99270131D01*
X152026156Y-99111381D01*
X150176906Y-99111381D01*
X150176906Y-99131381D01*
X149922906Y-99131381D01*
X149922906Y-99111381D01*
X148073656Y-99111381D01*
X147914906Y-99270131D01*
X147914906Y-99494381D01*
X143467651Y-99494381D01*
X143310625Y-99259375D01*
X143012239Y-99060000D01*
X143310625Y-98860625D01*
X143568705Y-98474381D01*
X147914906Y-98474381D01*
X147914906Y-98698631D01*
X148073656Y-98857381D01*
X149922906Y-98857381D01*
X149922906Y-98837381D01*
X150176906Y-98837381D01*
X150176906Y-98857381D01*
X152026156Y-98857381D01*
X152184906Y-98698631D01*
X152184906Y-98458071D01*
X152146279Y-98364816D01*
X152148063Y-98362146D01*
X152197346Y-98114381D01*
X152197346Y-97883218D01*
X170446000Y-97883218D01*
X170446000Y-98328782D01*
X170616510Y-98740429D01*
X170931571Y-99055490D01*
X171343218Y-99226000D01*
X171788782Y-99226000D01*
X171818560Y-99213666D01*
X171818560Y-99316000D01*
X171867843Y-99563765D01*
X172008191Y-99773809D01*
X172218235Y-99914157D01*
X172466000Y-99963440D01*
X177546000Y-99963440D01*
X177793765Y-99914157D01*
X178003809Y-99773809D01*
X178144157Y-99563765D01*
X178193440Y-99316000D01*
X178193440Y-96896000D01*
X178144157Y-96648235D01*
X178003809Y-96438191D01*
X177793765Y-96297843D01*
X177546000Y-96248560D01*
X172466000Y-96248560D01*
X172218235Y-96297843D01*
X172008191Y-96438191D01*
X171867843Y-96648235D01*
X171818560Y-96896000D01*
X171818560Y-96998334D01*
X171788782Y-96986000D01*
X171343218Y-96986000D01*
X170931571Y-97156510D01*
X170616510Y-97471571D01*
X170446000Y-97883218D01*
X152197346Y-97883218D01*
X152197346Y-97314381D01*
X152150602Y-97079381D01*
X152197346Y-96844381D01*
X152197346Y-96044381D01*
X152150602Y-95809381D01*
X152197346Y-95574381D01*
X152197346Y-94774381D01*
X152150602Y-94539381D01*
X152197346Y-94304381D01*
X152197346Y-93504381D01*
X152150602Y-93269381D01*
X152197346Y-93034381D01*
X152197346Y-92234381D01*
X152150602Y-91999381D01*
X152197346Y-91764381D01*
X152197346Y-90964381D01*
X152150602Y-90729381D01*
X152197346Y-90494381D01*
X152197346Y-89694381D01*
X152150602Y-89459381D01*
X152197346Y-89224381D01*
X152197346Y-88424381D01*
X152150602Y-88189381D01*
X152197346Y-87954381D01*
X152197346Y-87154381D01*
X152150602Y-86919381D01*
X152197346Y-86684381D01*
X152197346Y-85894381D01*
X165075017Y-85894381D01*
X165134002Y-86190918D01*
X165202466Y-86293381D01*
X165202466Y-86294381D01*
X165251749Y-86542146D01*
X165320061Y-86644381D01*
X165251749Y-86746616D01*
X165202466Y-86994381D01*
X165202466Y-86995381D01*
X165134002Y-87097844D01*
X165075017Y-87394381D01*
X165134002Y-87690918D01*
X165202466Y-87793381D01*
X165202466Y-87794381D01*
X165251749Y-88042146D01*
X165392097Y-88252190D01*
X165602141Y-88392538D01*
X165849906Y-88441821D01*
X167123020Y-88441821D01*
X167621000Y-88939802D01*
X167621000Y-89105874D01*
X167778569Y-89486280D01*
X168069720Y-89777431D01*
X168450126Y-89935000D01*
X168861874Y-89935000D01*
X169166001Y-89809027D01*
X169166001Y-89966148D01*
X169151112Y-90041000D01*
X169210097Y-90337537D01*
X169323043Y-90506572D01*
X169378072Y-90588929D01*
X169441528Y-90631329D01*
X170669000Y-91858802D01*
X170669000Y-92024874D01*
X170826569Y-92405280D01*
X171117720Y-92696431D01*
X171498126Y-92854000D01*
X171664199Y-92854000D01*
X171818560Y-93008361D01*
X171818560Y-94871000D01*
X171867843Y-95118765D01*
X172008191Y-95328809D01*
X172218235Y-95469157D01*
X172466000Y-95518440D01*
X177546000Y-95518440D01*
X177793765Y-95469157D01*
X178003809Y-95328809D01*
X178144157Y-95118765D01*
X178193440Y-94871000D01*
X178193440Y-92581000D01*
X178144157Y-92333235D01*
X178003809Y-92123191D01*
X177793765Y-91982843D01*
X177546000Y-91933560D01*
X172893361Y-91933560D01*
X172739000Y-91779199D01*
X172739000Y-91613126D01*
X172581431Y-91232720D01*
X172552151Y-91203440D01*
X177546000Y-91203440D01*
X177793765Y-91154157D01*
X178003809Y-91013809D01*
X178144157Y-90803765D01*
X178193440Y-90556000D01*
X178193440Y-88136000D01*
X178144157Y-87888235D01*
X178003809Y-87678191D01*
X177793765Y-87537843D01*
X177546000Y-87488560D01*
X172466000Y-87488560D01*
X172218235Y-87537843D01*
X172008191Y-87678191D01*
X171867843Y-87888235D01*
X171818560Y-88136000D01*
X171818560Y-88238334D01*
X171788782Y-88226000D01*
X171343218Y-88226000D01*
X170931571Y-88396510D01*
X170686000Y-88642081D01*
X170686000Y-86942846D01*
X170700888Y-86867999D01*
X170686000Y-86793152D01*
X170686000Y-86793148D01*
X170641904Y-86571463D01*
X170473929Y-86320071D01*
X170410473Y-86277671D01*
X169542712Y-85409911D01*
X169500310Y-85346452D01*
X169462957Y-85321493D01*
X169448063Y-85246616D01*
X169307715Y-85036572D01*
X169097671Y-84896224D01*
X168849906Y-84846941D01*
X165849906Y-84846941D01*
X165602141Y-84896224D01*
X165392097Y-85036572D01*
X165251749Y-85246616D01*
X165202466Y-85494381D01*
X165202466Y-85495381D01*
X165134002Y-85597844D01*
X165075017Y-85894381D01*
X152197346Y-85894381D01*
X152197346Y-85884381D01*
X152148063Y-85636616D01*
X152007715Y-85426572D01*
X151797671Y-85286224D01*
X151549906Y-85236941D01*
X149811743Y-85236941D01*
X149625000Y-85050199D01*
X149625000Y-84884126D01*
X149467431Y-84503720D01*
X149176280Y-84212569D01*
X148795874Y-84055000D01*
X148384126Y-84055000D01*
X148003720Y-84212569D01*
X147712569Y-84503720D01*
X147555000Y-84884126D01*
X147555000Y-85295874D01*
X147712569Y-85676280D01*
X147905486Y-85869197D01*
X147902466Y-85884381D01*
X147902466Y-86684381D01*
X147949210Y-86919381D01*
X147902466Y-87154381D01*
X147902466Y-87954381D01*
X147949210Y-88189381D01*
X147902466Y-88424381D01*
X147902466Y-88915664D01*
X147318000Y-88331199D01*
X147318000Y-85842846D01*
X147332888Y-85767999D01*
X147318000Y-85693152D01*
X147318000Y-85693148D01*
X147273904Y-85471463D01*
X147105929Y-85220071D01*
X147042473Y-85177671D01*
X145240233Y-83375431D01*
X170993000Y-83375431D01*
X170993000Y-84264569D01*
X171333259Y-85086026D01*
X171961974Y-85714741D01*
X172783431Y-86055000D01*
X173672569Y-86055000D01*
X174494026Y-85714741D01*
X175122741Y-85086026D01*
X175463000Y-84264569D01*
X175463000Y-83375431D01*
X175122741Y-82553974D01*
X174494026Y-81925259D01*
X173672569Y-81585000D01*
X172783431Y-81585000D01*
X171961974Y-81925259D01*
X171333259Y-82553974D01*
X170993000Y-83375431D01*
X145240233Y-83375431D01*
X143930331Y-82065530D01*
X143887929Y-82002071D01*
X143737440Y-81901517D01*
X143737440Y-81700000D01*
X143688157Y-81452235D01*
X143547809Y-81242191D01*
X143337765Y-81101843D01*
X143090000Y-81052560D01*
X141390000Y-81052560D01*
X141142235Y-81101843D01*
X140932191Y-81242191D01*
X140791843Y-81452235D01*
X140742560Y-81700000D01*
X140742560Y-83400000D01*
X140791843Y-83647765D01*
X140932191Y-83857809D01*
X141142235Y-83998157D01*
X141187619Y-84007184D01*
X141169375Y-84019375D01*
X140841161Y-84510582D01*
X140725908Y-85090000D01*
X140410000Y-85090000D01*
X140410000Y-81342119D01*
X140454065Y-81092213D01*
X140549405Y-80927080D01*
X140695477Y-80804512D01*
X140904465Y-80728445D01*
X141000996Y-80720000D01*
X177737881Y-80720000D01*
X177987787Y-80764065D01*
M02*
