%TF.GenerationSoftware,KiCad,Pcbnew,(5.0.0)*%
%TF.CreationDate,2018-09-19T17:34:28+03:00*%
%TF.ProjectId,lora1276Breakout,6C6F726131323736427265616B6F7574,1.0*%
%TF.SameCoordinates,Original*%
%TF.FileFunction,Legend,Top*%
%TF.FilePolarity,Positive*%
%FSLAX46Y46*%
G04 Gerber Fmt 4.6, Leading zero omitted, Abs format (unit mm)*
G04 Created by KiCad (PCBNEW (5.0.0)) date 09/19/18 17:34:28*
%MOMM*%
%LPD*%
G01*
G04 APERTURE LIST*
%ADD10C,0.300000*%
%ADD11C,0.100000*%
%ADD12C,0.150000*%
%ADD13C,0.120000*%
G04 APERTURE END LIST*
D10*
X155893142Y-104305571D02*
X155178857Y-104305571D01*
X155178857Y-102805571D01*
X156607428Y-104305571D02*
X156464571Y-104234142D01*
X156393142Y-104162714D01*
X156321714Y-104019857D01*
X156321714Y-103591285D01*
X156393142Y-103448428D01*
X156464571Y-103377000D01*
X156607428Y-103305571D01*
X156821714Y-103305571D01*
X156964571Y-103377000D01*
X157036000Y-103448428D01*
X157107428Y-103591285D01*
X157107428Y-104019857D01*
X157036000Y-104162714D01*
X156964571Y-104234142D01*
X156821714Y-104305571D01*
X156607428Y-104305571D01*
X157750285Y-104305571D02*
X157750285Y-103305571D01*
X157750285Y-103591285D02*
X157821714Y-103448428D01*
X157893142Y-103377000D01*
X158036000Y-103305571D01*
X158178857Y-103305571D01*
X159321714Y-104305571D02*
X159321714Y-103519857D01*
X159250285Y-103377000D01*
X159107428Y-103305571D01*
X158821714Y-103305571D01*
X158678857Y-103377000D01*
X159321714Y-104234142D02*
X159178857Y-104305571D01*
X158821714Y-104305571D01*
X158678857Y-104234142D01*
X158607428Y-104091285D01*
X158607428Y-103948428D01*
X158678857Y-103805571D01*
X158821714Y-103734142D01*
X159178857Y-103734142D01*
X159321714Y-103662714D01*
X160821714Y-104305571D02*
X159964571Y-104305571D01*
X160393142Y-104305571D02*
X160393142Y-102805571D01*
X160250285Y-103019857D01*
X160107428Y-103162714D01*
X159964571Y-103234142D01*
X161393142Y-102948428D02*
X161464571Y-102877000D01*
X161607428Y-102805571D01*
X161964571Y-102805571D01*
X162107428Y-102877000D01*
X162178857Y-102948428D01*
X162250285Y-103091285D01*
X162250285Y-103234142D01*
X162178857Y-103448428D01*
X161321714Y-104305571D01*
X162250285Y-104305571D01*
X162750285Y-102805571D02*
X163750285Y-102805571D01*
X163107428Y-104305571D01*
X164964571Y-102805571D02*
X164678857Y-102805571D01*
X164536000Y-102877000D01*
X164464571Y-102948428D01*
X164321714Y-103162714D01*
X164250285Y-103448428D01*
X164250285Y-104019857D01*
X164321714Y-104162714D01*
X164393142Y-104234142D01*
X164536000Y-104305571D01*
X164821714Y-104305571D01*
X164964571Y-104234142D01*
X165036000Y-104162714D01*
X165107428Y-104019857D01*
X165107428Y-103662714D01*
X165036000Y-103519857D01*
X164964571Y-103448428D01*
X164821714Y-103377000D01*
X164536000Y-103377000D01*
X164393142Y-103448428D01*
X164321714Y-103519857D01*
X164250285Y-103662714D01*
X165750285Y-103734142D02*
X166893142Y-103734142D01*
X156536000Y-106855571D02*
X156536000Y-105355571D01*
X156536000Y-105927000D02*
X156678857Y-105855571D01*
X156964571Y-105855571D01*
X157107428Y-105927000D01*
X157178857Y-105998428D01*
X157250285Y-106141285D01*
X157250285Y-106569857D01*
X157178857Y-106712714D01*
X157107428Y-106784142D01*
X156964571Y-106855571D01*
X156678857Y-106855571D01*
X156536000Y-106784142D01*
X157893142Y-106855571D02*
X157893142Y-105855571D01*
X157893142Y-106141285D02*
X157964571Y-105998428D01*
X158036000Y-105927000D01*
X158178857Y-105855571D01*
X158321714Y-105855571D01*
X159393142Y-106784142D02*
X159250285Y-106855571D01*
X158964571Y-106855571D01*
X158821714Y-106784142D01*
X158750285Y-106641285D01*
X158750285Y-106069857D01*
X158821714Y-105927000D01*
X158964571Y-105855571D01*
X159250285Y-105855571D01*
X159393142Y-105927000D01*
X159464571Y-106069857D01*
X159464571Y-106212714D01*
X158750285Y-106355571D01*
X160750285Y-106855571D02*
X160750285Y-106069857D01*
X160678857Y-105927000D01*
X160536000Y-105855571D01*
X160250285Y-105855571D01*
X160107428Y-105927000D01*
X160750285Y-106784142D02*
X160607428Y-106855571D01*
X160250285Y-106855571D01*
X160107428Y-106784142D01*
X160036000Y-106641285D01*
X160036000Y-106498428D01*
X160107428Y-106355571D01*
X160250285Y-106284142D01*
X160607428Y-106284142D01*
X160750285Y-106212714D01*
X161464571Y-106855571D02*
X161464571Y-105355571D01*
X161607428Y-106284142D02*
X162036000Y-106855571D01*
X162036000Y-105855571D02*
X161464571Y-106427000D01*
X162893142Y-106855571D02*
X162750285Y-106784142D01*
X162678857Y-106712714D01*
X162607428Y-106569857D01*
X162607428Y-106141285D01*
X162678857Y-105998428D01*
X162750285Y-105927000D01*
X162893142Y-105855571D01*
X163107428Y-105855571D01*
X163250285Y-105927000D01*
X163321714Y-105998428D01*
X163393142Y-106141285D01*
X163393142Y-106569857D01*
X163321714Y-106712714D01*
X163250285Y-106784142D01*
X163107428Y-106855571D01*
X162893142Y-106855571D01*
X164678857Y-105855571D02*
X164678857Y-106855571D01*
X164036000Y-105855571D02*
X164036000Y-106641285D01*
X164107428Y-106784142D01*
X164250285Y-106855571D01*
X164464571Y-106855571D01*
X164607428Y-106784142D01*
X164678857Y-106712714D01*
X165178857Y-105855571D02*
X165750285Y-105855571D01*
X165393142Y-105355571D02*
X165393142Y-106641285D01*
X165464571Y-106784142D01*
X165607428Y-106855571D01*
X165750285Y-106855571D01*
D11*
X152016000Y-99110000D02*
X152549333Y-99110000D01*
X152282666Y-99376666D02*
X152282666Y-98843333D01*
X152816000Y-98676666D02*
X153249333Y-98676666D01*
X153016000Y-98943333D01*
X153116000Y-98943333D01*
X153182666Y-98976666D01*
X153216000Y-99010000D01*
X153249333Y-99076666D01*
X153249333Y-99243333D01*
X153216000Y-99310000D01*
X153182666Y-99343333D01*
X153116000Y-99376666D01*
X152916000Y-99376666D01*
X152849333Y-99343333D01*
X152816000Y-99310000D01*
X153549333Y-99310000D02*
X153582666Y-99343333D01*
X153549333Y-99376666D01*
X153516000Y-99343333D01*
X153549333Y-99310000D01*
X153549333Y-99376666D01*
X153816000Y-98676666D02*
X154249333Y-98676666D01*
X154016000Y-98943333D01*
X154116000Y-98943333D01*
X154182666Y-98976666D01*
X154216000Y-99010000D01*
X154249333Y-99076666D01*
X154249333Y-99243333D01*
X154216000Y-99310000D01*
X154182666Y-99343333D01*
X154116000Y-99376666D01*
X153916000Y-99376666D01*
X153849333Y-99343333D01*
X153816000Y-99310000D01*
X154449333Y-98676666D02*
X154682666Y-99376666D01*
X154916000Y-98676666D01*
X164058666Y-87026000D02*
X163992000Y-86992666D01*
X163892000Y-86992666D01*
X163792000Y-87026000D01*
X163725333Y-87092666D01*
X163692000Y-87159333D01*
X163658666Y-87292666D01*
X163658666Y-87392666D01*
X163692000Y-87526000D01*
X163725333Y-87592666D01*
X163792000Y-87659333D01*
X163892000Y-87692666D01*
X163958666Y-87692666D01*
X164058666Y-87659333D01*
X164092000Y-87626000D01*
X164092000Y-87392666D01*
X163958666Y-87392666D01*
X164392000Y-87692666D02*
X164392000Y-86992666D01*
X164792000Y-87692666D01*
X164792000Y-86992666D01*
X165125333Y-87692666D02*
X165125333Y-86992666D01*
X165292000Y-86992666D01*
X165392000Y-87026000D01*
X165458666Y-87092666D01*
X165492000Y-87159333D01*
X165525333Y-87292666D01*
X165525333Y-87392666D01*
X165492000Y-87526000D01*
X165458666Y-87592666D01*
X165392000Y-87659333D01*
X165292000Y-87692666D01*
X165125333Y-87692666D01*
X163792000Y-85968666D02*
X164125333Y-85968666D01*
X163725333Y-86168666D02*
X163958666Y-85468666D01*
X164192000Y-86168666D01*
X164425333Y-86168666D02*
X164425333Y-85468666D01*
X164825333Y-86168666D01*
X164825333Y-85468666D01*
X165058666Y-85468666D02*
X165458666Y-85468666D01*
X165258666Y-86168666D02*
X165258666Y-85468666D01*
X153120000Y-89216666D02*
X153120000Y-88516666D01*
X153520000Y-89216666D01*
X153520000Y-88516666D01*
X154253333Y-89150000D02*
X154220000Y-89183333D01*
X154120000Y-89216666D01*
X154053333Y-89216666D01*
X153953333Y-89183333D01*
X153886666Y-89116666D01*
X153853333Y-89050000D01*
X153820000Y-88916666D01*
X153820000Y-88816666D01*
X153853333Y-88683333D01*
X153886666Y-88616666D01*
X153953333Y-88550000D01*
X154053333Y-88516666D01*
X154120000Y-88516666D01*
X154220000Y-88550000D01*
X154253333Y-88583333D01*
X153120000Y-87946666D02*
X153120000Y-87246666D01*
X153520000Y-87946666D01*
X153520000Y-87246666D01*
X154253333Y-87880000D02*
X154220000Y-87913333D01*
X154120000Y-87946666D01*
X154053333Y-87946666D01*
X153953333Y-87913333D01*
X153886666Y-87846666D01*
X153853333Y-87780000D01*
X153820000Y-87646666D01*
X153820000Y-87546666D01*
X153853333Y-87413333D01*
X153886666Y-87346666D01*
X153953333Y-87280000D01*
X154053333Y-87246666D01*
X154120000Y-87246666D01*
X154220000Y-87280000D01*
X154253333Y-87313333D01*
X153136666Y-86010000D02*
X153070000Y-85976666D01*
X152970000Y-85976666D01*
X152870000Y-86010000D01*
X152803333Y-86076666D01*
X152770000Y-86143333D01*
X152736666Y-86276666D01*
X152736666Y-86376666D01*
X152770000Y-86510000D01*
X152803333Y-86576666D01*
X152870000Y-86643333D01*
X152970000Y-86676666D01*
X153036666Y-86676666D01*
X153136666Y-86643333D01*
X153170000Y-86610000D01*
X153170000Y-86376666D01*
X153036666Y-86376666D01*
X153470000Y-86676666D02*
X153470000Y-85976666D01*
X153870000Y-86676666D01*
X153870000Y-85976666D01*
X154203333Y-86676666D02*
X154203333Y-85976666D01*
X154370000Y-85976666D01*
X154470000Y-86010000D01*
X154536666Y-86076666D01*
X154570000Y-86143333D01*
X154603333Y-86276666D01*
X154603333Y-86376666D01*
X154570000Y-86510000D01*
X154536666Y-86576666D01*
X154470000Y-86643333D01*
X154370000Y-86676666D01*
X154203333Y-86676666D01*
D12*
X150049906Y-101784381D02*
X150049906Y-84784381D01*
X150049906Y-84784381D02*
X167349906Y-84784381D01*
X167349906Y-84784381D02*
X167349906Y-101784381D01*
X167349906Y-101784381D02*
X150049906Y-101784381D01*
D13*
X170786000Y-93476000D02*
X171286000Y-93726000D01*
X170786000Y-93976000D02*
X170786000Y-93476000D01*
X171286000Y-93726000D02*
X170786000Y-93976000D01*
X150420000Y-103881422D02*
X150420000Y-104398578D01*
X151840000Y-103881422D02*
X151840000Y-104398578D01*
X147030000Y-103881422D02*
X147030000Y-104398578D01*
X145610000Y-103881422D02*
X145610000Y-104398578D01*
X140910000Y-106740000D02*
X143570000Y-106740000D01*
X140910000Y-83820000D02*
X140910000Y-106740000D01*
X143570000Y-83820000D02*
X143570000Y-106740000D01*
X140910000Y-83820000D02*
X143570000Y-83820000D01*
X140910000Y-82550000D02*
X140910000Y-81220000D01*
X140910000Y-81220000D02*
X142240000Y-81220000D01*
D12*
X167894095Y-100544380D02*
X167894095Y-101353904D01*
X167941714Y-101449142D01*
X167989333Y-101496761D01*
X168084571Y-101544380D01*
X168275047Y-101544380D01*
X168370285Y-101496761D01*
X168417904Y-101449142D01*
X168465523Y-101353904D01*
X168465523Y-100544380D01*
X169465523Y-101544380D02*
X168894095Y-101544380D01*
X169179809Y-101544380D02*
X169179809Y-100544380D01*
X169084571Y-100687238D01*
X168989333Y-100782476D01*
X168894095Y-100830095D01*
X173500285Y-87130761D02*
X173643142Y-87178380D01*
X173881238Y-87178380D01*
X173976476Y-87130761D01*
X174024095Y-87083142D01*
X174071714Y-86987904D01*
X174071714Y-86892666D01*
X174024095Y-86797428D01*
X173976476Y-86749809D01*
X173881238Y-86702190D01*
X173690761Y-86654571D01*
X173595523Y-86606952D01*
X173547904Y-86559333D01*
X173500285Y-86464095D01*
X173500285Y-86368857D01*
X173547904Y-86273619D01*
X173595523Y-86226000D01*
X173690761Y-86178380D01*
X173928857Y-86178380D01*
X174071714Y-86226000D01*
X174500285Y-87178380D02*
X174500285Y-86178380D01*
X174833619Y-86892666D01*
X175166952Y-86178380D01*
X175166952Y-87178380D01*
X175595523Y-86892666D02*
X176071714Y-86892666D01*
X175500285Y-87178380D02*
X175833619Y-86178380D01*
X176166952Y-87178380D01*
X153137142Y-104306666D02*
X153184761Y-104354285D01*
X153232380Y-104497142D01*
X153232380Y-104592380D01*
X153184761Y-104735238D01*
X153089523Y-104830476D01*
X152994285Y-104878095D01*
X152803809Y-104925714D01*
X152660952Y-104925714D01*
X152470476Y-104878095D01*
X152375238Y-104830476D01*
X152280000Y-104735238D01*
X152232380Y-104592380D01*
X152232380Y-104497142D01*
X152280000Y-104354285D01*
X152327619Y-104306666D01*
X153232380Y-103354285D02*
X153232380Y-103925714D01*
X153232380Y-103640000D02*
X152232380Y-103640000D01*
X152375238Y-103735238D01*
X152470476Y-103830476D01*
X152518095Y-103925714D01*
X148327142Y-104306666D02*
X148374761Y-104354285D01*
X148422380Y-104497142D01*
X148422380Y-104592380D01*
X148374761Y-104735238D01*
X148279523Y-104830476D01*
X148184285Y-104878095D01*
X147993809Y-104925714D01*
X147850952Y-104925714D01*
X147660476Y-104878095D01*
X147565238Y-104830476D01*
X147470000Y-104735238D01*
X147422380Y-104592380D01*
X147422380Y-104497142D01*
X147470000Y-104354285D01*
X147517619Y-104306666D01*
X147517619Y-103925714D02*
X147470000Y-103878095D01*
X147422380Y-103782857D01*
X147422380Y-103544761D01*
X147470000Y-103449523D01*
X147517619Y-103401904D01*
X147612857Y-103354285D01*
X147708095Y-103354285D01*
X147850952Y-103401904D01*
X148422380Y-103973333D01*
X148422380Y-103354285D01*
X141906666Y-79672380D02*
X141906666Y-80386666D01*
X141859047Y-80529523D01*
X141763809Y-80624761D01*
X141620952Y-80672380D01*
X141525714Y-80672380D01*
X142906666Y-80672380D02*
X142335238Y-80672380D01*
X142620952Y-80672380D02*
X142620952Y-79672380D01*
X142525714Y-79815238D01*
X142430476Y-79910476D01*
X142335238Y-79958095D01*
M02*
